<?xml version="1.0" standalone="no"?>
<!DOCTYPE svg PUBLIC "-//W3C//DTD SVG 20010904//EN"
 "http://www.w3.org/TR/2001/REC-SVG-20010904/DTD/svg10.dtd">
<svg version="1.0" xmlns="http://www.w3.org/2000/svg"
 width="500.000000pt" height="500.000000pt" viewBox="0 0 500.000000 500.000000"
 preserveAspectRatio="xMidYMid meet">

<g transform="translate(0.000000,500.000000) scale(0.100000,-0.100000)"
fill="#000000" stroke="none">
<path d="M1522 4018 c-45 -66 -100 -180 -132 -276 -31 -94 -66 -270 -55 -280
6 -6 1097 -53 1102 -48 5 4 -869 645 -879 646 -4 0 -20 -19 -36 -42z"/>
<path d="M579 2968 c-43 -161 -55 -374 -30 -518 15 -82 48 -200 61 -213 7 -8
1980 69 2030 80 38 7 112 -18 -1827 618 l-223 73 -11 -40z"/>
<path d="M5 1633 c29 -317 137 -557 349 -769 180 -181 409 -296 666 -335 l79
-12 934 584 933 584 -310 6 c-171 4 -839 7 -1484 8 l-1173 1 6 -67z"/>
</g>
</svg>
